<?xml version="1.0" standalone="no"?>
<!DOCTYPE svg PUBLIC "-//W3C//DTD SVG 20010904//EN"
 "http://www.w3.org/TR/2001/REC-SVG-20010904/DTD/svg10.dtd">
<svg version="1.0" xmlns="http://www.w3.org/2000/svg"
 width="180.000000pt" height="180.000000pt" viewBox="0 0 180.000000 180.000000"
 preserveAspectRatio="xMidYMid meet">
<metadata>
Created by potrace 1.11, written by Peter Selinger 2001-2013
</metadata>
<g transform="translate(0.000000,180.000000) scale(0.100000,-0.100000)"
fill="#000000" stroke="none">
<path d="M692 1348 c-41 -94 -107 -228 -112 -228 -3 0 -15 15 -27 32 l-23 32
25 21 c37 30 43 78 14 107 -21 21 -35 24 -111 27 -72 2 -88 0 -88 -12 0 -8 8
-17 19 -20 15 -3 18 -12 16 -38 -2 -19 -5 -62 -6 -97 -2 -60 -16 -92 -40 -92
-6 0 -7 -4 -4 -10 8 -13 122 -13 130 1 4 6 -2 13 -14 16 -17 4 -21 13 -21 49
0 24 4 44 9 44 5 0 26 -27 47 -60 39 -59 39 -60 87 -60 35 0 47 4 47 15 0 8
-7 15 -15 15 -13 0 -14 4 -5 20 17 32 58 22 71 -17 l11 -33 116 0 c146 0 183
10 219 57 49 64 33 183 -27 208 -8 4 -59 9 -112 12 -87 5 -98 4 -98 -11 0 -9
8 -16 20 -16 17 0 19 -5 16 -27 -3 -16 -6 -59 -8 -97 -3 -65 -2 -69 20 -72 12
-2 25 2 27 9 5 13 13 93 14 145 1 30 3 32 36 32 36 0 74 -27 76 -55 1 -8 2
-25 3 -37 3 -36 -14 -78 -39 -94 -13 -9 -53 -17 -89 -19 -77 -5 -70 -13 -121
132 l-34 98 32 33 31 32 -37 0 c-33 0 -38 -4 -55 -42z m-174 -84 c2 -24 -2
-33 -23 -42 -36 -17 -35 -17 -35 34 0 44 1 45 28 42 22 -2 28 -9 30 -34z m198
-94 c11 -32 18 -64 14 -71 -5 -7 -10 0 -15 19 -7 36 -23 51 -47 47 -10 -2 -18
-2 -18 1 0 12 35 73 39 68 3 -3 15 -32 27 -64z"/>
<path d="M1262 1337 c-90 -28 -132 -163 -74 -233 85 -101 242 -31 242 107 0
96 -79 154 -168 126z m82 -42 c35 -35 31 -142 -6 -182 -29 -31 -73 -30 -93 1
-29 44 -18 156 18 181 28 19 61 19 81 0z"/>
<path d="M1055 1329 c-4 -6 2 -13 14 -16 18 -5 20 -11 16 -62 -2 -31 -5 -76
-6 -101 -2 -47 -15 -74 -30 -64 -5 3 -9 -2 -9 -10 0 -13 13 -16 65 -16 51 0
65 3 65 15 0 9 -9 15 -21 15 -18 0 -20 4 -15 33 3 17 6 62 7 99 2 72 5 81 32
91 10 4 15 11 12 17 -8 13 -122 13 -130 -1z"/>
<path d="M1602 944 c-7 -14 -16 -23 -20 -20 -19 12 -81 -44 -97 -88 -23 -60
-13 -110 30 -153 26 -26 41 -33 74 -33 55 0 85 16 117 62 21 30 27 50 27 89
-1 57 -20 92 -64 115 -30 15 -30 16 -13 35 17 18 16 19 -13 19 -22 0 -33 -6
-41 -26z m67 -81 c13 -29 14 -93 2 -126 -24 -62 -87 -81 -123 -37 -21 25 -24
100 -7 148 22 62 102 72 128 15z"/>
<path d="M150 912 c-19 -9 -45 -33 -58 -52 -33 -49 -28 -139 10 -177 49 -49
158 -39 189 18 17 33 3 33 -31 0 -17 -16 -37 -28 -43 -26 -7 2 -25 6 -40 10
-76 16 -70 178 9 211 32 14 38 13 60 -1 14 -9 30 -27 36 -40 16 -35 28 -21 28
31 0 40 -13 60 -22 33 -2 -7 -12 -7 -31 0 -40 15 -67 14 -107 -7z"/>
<path d="M346 888 c-4 -34 -14 -154 -16 -200 0 -4 -9 -10 -21 -13 -33 -11 -13
-19 51 -21 47 -2 58 0 53 11 -2 8 -10 13 -16 12 -8 -1 -12 16 -12 51 l0 52 52
0 53 0 0 -42 c0 -44 -11 -71 -26 -68 -5 1 -10 -3 -11 -7 -4 -11 152 -11 163 0
4 4 0 7 -9 7 -18 0 -21 9 -11 34 4 10 18 16 35 16 23 0 31 -6 43 -34 l14 -33
98 1 c61 1 98 5 97 11 -2 6 -9 10 -15 10 -9 0 -13 18 -14 50 l-2 51 32 -3 c62
-7 107 43 92 102 -9 35 -38 46 -122 49 -73 2 -90 -4 -58 -22 13 -7 15 -24 11
-98 -3 -49 -6 -100 -6 -114 -2 -45 -27 -2 -69 120 -22 63 -44 116 -49 117 -5
2 -36 -51 -68 -118 -33 -67 -64 -122 -69 -123 -9 -1 -9 47 -1 144 2 19 4 43 4
52 1 9 10 20 21 23 34 11 14 21 -37 19 -75 -3 -80 -4 -55 -15 21 -8 23 -14 20
-56 l-3 -48 -53 0 c-47 -1 -52 2 -52 21 0 43 13 84 26 84 8 0 14 5 14 10 0 6
-18 10 -39 10 -39 0 -40 -1 -45 -42z m574 -19 c12 -21 -3 -69 -22 -70 -7 0
-20 -2 -29 -4 -14 -2 -15 5 -11 44 3 25 9 49 15 53 14 9 36 -1 47 -23z m-225
-100 c27 -83 27 -121 0 -56 -13 31 -20 37 -44 37 l-30 0 22 50 c12 27 23 50
23 50 1 0 14 -36 29 -81z"/>
<path d="M982 918 c-17 -6 -14 -9 11 -12 9 -1 12 -29 12 -101 0 -104 -3 -135
-14 -133 -19 2 -33 -3 -27 -9 4 -5 51 -8 104 -9 l97 0 17 35 c21 45 14 53 -17
19 -19 -21 -33 -26 -70 -26 l-46 0 3 46 c3 45 4 47 37 50 23 2 37 -2 43 -12
16 -29 28 -16 28 31 0 44 -1 45 -18 30 -10 -10 -33 -17 -51 -17 -32 0 -32 1
-29 43 3 41 4 42 41 45 40 3 71 -13 60 -30 -3 -6 0 -9 8 -6 15 5 26 57 12 59
-40 5 -187 3 -201 -3z"/>
<path d="M1300 912 c-72 -36 -105 -144 -64 -208 33 -50 107 -68 162 -40 35 18
66 52 54 60 -5 3 -16 -1 -23 -10 -44 -53 -121 -46 -145 12 -20 48 -4 135 30
157 48 32 98 22 117 -23 8 -16 17 -26 21 -24 12 7 10 94 -2 94 -5 0 -10 -4
-10 -9 0 -6 -12 -6 -32 0 -47 13 -68 11 -108 -9z"/>
<path d="M1197 569 c-17 -44 -15 -61 5 -41 16 16 45 15 51 0 2 -7 8 -10 12 -6
11 10 -20 82 -37 86 -9 2 -21 -13 -31 -39z m38 1 c3 -5 1 -10 -4 -10 -6 0 -11
5 -11 10 0 6 2 10 4 10 3 0 8 -4 11 -10z"/>
<path d="M1280 565 c0 -25 5 -45 10 -45 6 0 10 15 10 33 l1 32 14 -32 c17 -40
28 -41 42 -5 7 15 12 20 11 12 -1 -29 2 -40 12 -40 6 0 10 20 10 45 0 37 -3
45 -19 45 -12 0 -21 -10 -26 -27 l-7 -28 -10 28 c-6 17 -17 27 -29 27 -16 0
-19 -7 -19 -45z"/>
<path d="M1450 595 c-10 -12 -10 -15 4 -15 11 0 16 -9 16 -30 0 -16 5 -30 10
-30 6 0 10 20 10 45 0 48 -16 59 -40 30z"/>
<path d="M1520 601 c0 -6 3 -10 8 -10 20 3 25 -2 12 -12 -11 -8 -12 -12 -2
-16 19 -8 14 -23 -8 -23 -11 0 -20 -5 -20 -11 0 -6 12 -9 28 -7 24 3 27 7 27
43 0 34 -3 40 -22 43 -13 2 -23 -1 -23 -7z"/>
<path d="M1590 600 c0 -5 5 -9 11 -7 6 1 14 -4 17 -12 3 -8 0 -11 -7 -7 -6 4
-11 2 -11 -3 0 -6 5 -11 10 -11 20 0 9 -19 -12 -23 -21 -3 -22 -4 -4 -12 38
-17 69 35 42 73 -10 14 -46 16 -46 2z"/>
<path d="M1667 603 c-14 -13 -7 -71 9 -77 26 -10 34 -7 45 18 8 17 8 29 0 45
-11 20 -41 28 -54 14z m33 -39 c0 -14 -4 -23 -10 -19 -5 3 -10 15 -10 26 0 10
5 19 10 19 6 0 10 -12 10 -26z"/>
</g>
</svg>
