<?xml version="1.0" standalone="no"?>
<!DOCTYPE svg PUBLIC "-//W3C//DTD SVG 20010904//EN"
 "http://www.w3.org/TR/2001/REC-SVG-20010904/DTD/svg10.dtd">
<svg version="1.0" xmlns="http://www.w3.org/2000/svg"
 width="600.000000pt" height="600.000000pt" viewBox="0 0 600.000000 600.000000"
 preserveAspectRatio="xMidYMid meet">
<metadata>
Created by potrace 1.11, written by Peter Selinger 2001-2013
</metadata>
<g transform="translate(0.000000,600.000000) scale(0.100000,-0.100000)"
fill="#000000" stroke="none">
<path d="M2579 3813 c-6 -21 -57 -130 -111 -243 -55 -113 -104 -215 -109 -227
-5 -13 -13 -23 -18 -23 -14 0 -106 143 -95 147 94 32 139 148 86 223 -37 52
-82 63 -246 64 l-151 1 0 -25 c0 -21 5 -26 33 -28 l34 -3 -7 -127 c-4 -70 -9
-138 -10 -152 -2 -14 -4 -47 -4 -75 -2 -61 -10 -75 -46 -78 -23 -2 -29 -8 -32
-30 l-4 -28 128 3 128 3 0 25 c0 15 -6 26 -15 26 -8 1 -23 2 -33 3 -17 1 -18
9 -15 96 2 52 7 97 9 100 3 2 43 -54 90 -125 l84 -130 91 0 c82 0 92 2 97 19
6 23 -10 41 -35 41 -21 0 -22 9 -6 45 10 22 17 25 64 25 l52 0 24 -66 23 -65
250 3 250 3 57 28 c32 16 73 47 92 69 82 95 91 262 18 350 -67 81 -98 90 -342
92 l-135 1 -3 -27 c-3 -26 -1 -28 33 -28 l36 0 -5 -97 c-3 -54 -8 -141 -12
-194 l-6 -97 51 1 c29 0 53 3 55 6 4 6 10 80 22 256 3 55 8 102 10 104 3 3 29
4 58 4 100 -1 156 -59 161 -164 4 -75 -9 -124 -46 -170 -46 -59 -86 -72 -221
-74 -80 -1 -122 2 -128 10 -5 7 -44 107 -85 224 l-75 213 56 64 56 64 -70 0
-70 0 -13 -37z m-368 -149 c29 -26 25 -89 -7 -117 -25 -22 -54 -34 -86 -36
-15 -1 -16 8 -11 82 3 45 10 85 16 89 17 10 68 0 88 -18z m392 -227 c42 -126
49 -167 27 -167 -5 0 -19 31 -31 70 l-23 69 -52 3 -53 3 42 82 c23 45 42 81
43 80 1 -1 22 -64 47 -140z"/>
<path d="M3672 3748 c-158 -59 -233 -258 -156 -415 42 -87 128 -137 227 -132
59 3 95 17 148 55 83 60 127 153 123 262 -3 79 -31 139 -90 191 -70 62 -155
75 -252 39z m168 -73 c36 -33 53 -97 48 -187 -5 -102 -32 -169 -80 -198 -43
-26 -107 -26 -140 0 -95 74 -70 348 36 396 39 18 111 12 136 -11z"/>
<path d="M3275 3742 c-12 -32 -5 -42 31 -42 l35 0 -5 -107 c-15 -287 -20 -322
-47 -324 -10 -1 -25 -2 -31 -3 -7 0 -13 -12 -13 -26 l0 -25 124 0 125 0 1 28
c2 23 -2 28 -19 26 -50 -3 -49 -6 -42 114 4 61 9 148 12 192 7 117 9 123 47
127 26 2 33 8 35 28 l3 26 -125 0 c-98 0 -126 -3 -131 -14z"/>
<path d="M4364 2985 c-11 -31 -22 -45 -35 -45 -65 0 -164 -84 -200 -168 -42
-97 -19 -243 48 -307 135 -130 368 -59 428 131 26 85 16 182 -26 244 -33 48
-80 85 -123 96 -33 8 -33 14 4 49 17 16 30 32 30 37 0 4 -24 8 -54 8 l-54 0
-18 -45z m52 -94 c109 -6 132 -301 31 -399 -36 -35 -92 -50 -141 -38 -30 7
-75 63 -83 103 -10 48 -6 168 7 209 25 78 88 135 144 129 11 -1 31 -3 42 -4z"/>
<path d="M1569 2943 c-15 -2 -51 -19 -80 -36 -160 -95 -194 -341 -64 -456 72
-63 211 -72 290 -18 37 25 95 88 95 103 0 24 -30 23 -45 0 -68 -103 -231 -106
-290 -6 -16 28 -20 52 -20 120 1 72 5 94 29 143 29 61 52 82 107 97 79 23 156
-20 180 -101 7 -21 18 -39 24 -39 16 0 22 28 24 100 1 30 4 63 7 73 8 27 -23
33 -44 7 -17 -22 -20 -22 -49 -6 -33 17 -120 27 -164 19z"/>
<path d="M1899 2933 c-1 -10 -2 -31 -4 -48 -7 -90 -16 -212 -21 -305 -6 -111
-15 -132 -56 -134 -13 -1 -24 -8 -26 -18 -3 -16 8 -18 117 -18 109 0 121 2
121 18 0 12 -9 18 -27 20 -34 3 -42 15 -38 61 2 20 4 60 4 89 l1 52 106 0 107
0 -7 -92 c-7 -96 -20 -120 -58 -113 -12 3 -18 -2 -18 -16 0 -18 8 -19 158 -19
87 0 161 3 165 6 8 8 -3 35 -13 29 -4 -2 -16 2 -26 9 -18 13 -18 16 -2 49 16
34 18 35 75 33 l58 -2 21 -60 21 -59 196 -3 c184 -2 197 -1 197 16 0 12 -8 18
-26 20 -43 3 -46 10 -40 81 6 68 19 288 20 329 0 19 5 22 38 22 102 0 124
-150 29 -190 -15 -6 -34 -10 -41 -8 -18 4 -26 -32 -10 -42 22 -14 112 0 147
21 73 45 95 159 42 216 -47 50 -74 56 -224 57 -125 1 -140 -1 -143 -16 -3 -13
3 -18 20 -18 45 0 49 -10 44 -106 -21 -363 -19 -350 -49 -338 -17 6 -34 47
-128 317 -46 132 -66 177 -77 175 -8 -2 -68 -111 -136 -247 -67 -135 -125
-244 -131 -243 -12 3 -12 101 -2 287 8 140 14 155 65 155 17 0 23 5 20 18 -3
15 -18 17 -121 19 -109 1 -117 0 -117 -18 0 -14 7 -19 25 -19 28 0 43 -26 39
-64 -1 -11 -3 -46 -3 -76 l-1 -56 -106 -1 -106 -1 6 91 c7 98 16 117 52 117
17 0 24 6 24 20 0 18 -7 20 -80 20 -69 0 -80 -2 -81 -17z m718 -437 c8 -57
-16 -42 -39 24 -10 30 -22 58 -26 62 -5 5 -34 9 -65 9 -32 1 -57 2 -57 4 0 2
21 47 47 100 l47 97 44 -129 c25 -70 47 -145 49 -167z"/>
<path d="M3823 2941 c-126 -32 -214 -155 -214 -299 0 -195 176 -301 358 -216
34 15 103 89 103 110 0 29 -23 23 -58 -16 -43 -47 -98 -70 -157 -63 -108 12
-157 101 -134 246 21 129 76 190 173 190 69 0 106 -25 135 -93 21 -49 38 -63
46 -37 2 6 6 51 10 100 5 81 4 87 -14 87 -10 0 -21 -9 -24 -20 -5 -20 -28 -21
-65 -1 -28 15 -121 22 -159 12z"/>
<path d="M3140 2918 c0 -12 7 -18 25 -18 28 0 44 -24 40 -60 -3 -27 -14 -194
-20 -304 -5 -76 -10 -86 -46 -89 -23 -1 -39 -13 -39 -30 0 -4 93 -6 207 -5
l206 3 29 69 c33 82 32 76 11 76 -10 0 -31 -19 -47 -41 -35 -50 -58 -59 -152
-59 -63 0 -74 2 -75 18 -1 23 3 112 6 137 1 11 3 26 4 33 1 8 21 12 64 12 69
0 81 -5 91 -37 4 -12 14 -20 23 -19 21 3 21 5 25 89 4 75 -6 85 -44 42 -19
-22 -30 -25 -89 -25 l-68 0 5 78 c3 42 7 82 9 88 3 12 138 13 173 1 16 -6 22
-16 22 -38 0 -17 6 -32 15 -36 22 -8 23 -5 30 69 l6 66 -205 -1 c-193 0 -206
-1 -206 -19z"/>
<path d="M4203 2319 c-15 -5 -21 -14 -17 -24 3 -8 10 -12 16 -9 5 3 20 3 33 0
29 -7 24 -36 -6 -36 -10 0 -19 -7 -19 -15 0 -8 9 -15 19 -15 11 0 23 -5 27
-11 9 -16 -16 -29 -48 -25 -22 3 -28 -1 -28 -15 0 -15 8 -19 41 -19 56 0 79
14 79 50 0 15 -6 30 -12 33 -10 4 -10 7 0 18 15 16 16 45 2 54 -24 15 -67 22
-87 14z"/>
<path d="M4351 2318 c-31 -11 -21 -32 14 -33 33 0 46 -24 17 -32 -32 -8 -36
-33 -7 -33 15 0 25 -6 25 -14 0 -18 -31 -29 -54 -20 -12 4 -16 0 -16 -15 0
-18 6 -21 38 -21 21 0 48 7 60 16 25 17 29 52 7 60 -12 5 -12 9 2 30 14 23 14
26 -1 43 -21 23 -55 31 -85 19z"/>
<path d="M3567 2243 c-15 -43 -27 -81 -27 -85 0 -16 39 -7 44 10 8 24 64 24
77 0 10 -18 49 -26 49 -10 0 4 -13 41 -29 82 -26 68 -31 75 -58 78 -28 3 -30
0 -56 -75z m72 -10 c1 -7 -8 -13 -18 -13 -18 0 -19 3 -9 32 10 28 12 30 19 12
4 -10 8 -25 8 -31z"/>
<path d="M3730 2235 c0 -78 2 -85 20 -85 21 0 22 5 21 75 l0 40 22 -58 c30
-78 53 -76 84 8 l21 60 -2 -50 c-4 -62 1 -75 25 -75 17 0 19 8 19 85 l0 85
-33 0 c-32 0 -35 -3 -53 -56 l-19 -55 -18 55 c-18 53 -20 56 -53 56 l-34 0 0
-85z"/>
<path d="M4071 2301 c-16 -12 -22 -24 -17 -36 5 -14 9 -15 21 -5 13 11 15 4
15 -49 0 -59 1 -62 23 -59 21 3 22 8 22 83 0 73 -2 80 -20 82 -11 2 -31 -5
-44 -16z"/>
<path d="M4490 2305 c-21 -26 -25 -101 -6 -130 20 -31 67 -34 96 -5 25 25 27
95 4 128 -18 26 -75 30 -94 7z m64 -37 c10 -38 7 -65 -9 -78 -9 -7 -18 -11
-20 -8 -5 5 -9 58 -6 91 2 25 28 21 35 -5z"/>
</g>
</svg>
